<?xml version="1.0" standalone="no"?>
<!DOCTYPE svg PUBLIC "-//W3C//DTD SVG 20010904//EN"
 "http://www.w3.org/TR/2001/REC-SVG-20010904/DTD/svg10.dtd">
<svg version="1.0" xmlns="http://www.w3.org/2000/svg"
 width="920.000000pt" height="622.000000pt" viewBox="0 0 920.000000 622.000000"
 preserveAspectRatio="xMidYMid meet">
<metadata>
Created by potrace 1.16, written by Peter Selinger 2001-2019
</metadata>
<g transform="translate(0.000000,622.000000) scale(0.100000,-0.100000)"
fill="#000000" stroke="none">
<path d="M4390 6214 c-1205 -90 -2240 -849 -2683 -1969 -355 -896 -268 -1926
232 -2750 441 -727 1163 -1248 1981 -1428 259 -57 309 -62 685 -62 376 0 426
5 685 62 1182 261 2126 1222 2365 2408 48 239 59 354 59 630 0 276 -11 391
-59 630 -133 659 -497 1281 -1010 1722 -474 409 -1024 655 -1650 738 -116 16
-491 27 -605 19z m1285 -1573 c638 -34 665 -38 785 -122 151 -106 249 -286
288 -529 48 -292 48 -1448 1 -1710 -44 -244 -181 -476 -345 -585 -98 -66 -162
-85 -308 -95 -479 -34 -818 -42 -1616 -36 -750 4 -941 9 -1355 35 -172 11
-231 27 -325 86 -105 66 -217 208 -277 351 -64 150 -77 224 -99 574 -24 393
-11 1077 26 1325 46 306 233 573 458 650 73 26 183 36 632 60 283 15 1832 12
2135 -4z"/>
<path d="M4055 3120 c0 -423 3 -770 7 -770 4 0 188 104 410 231 222 127 471
270 553 317 83 46 191 108 240 138 50 29 102 58 118 65 15 7 27 15 27 18 0 3
-92 57 -203 120 -111 63 -258 147 -327 186 -118 68 -340 196 -668 383 -78 45
-145 82 -150 82 -4 0 -7 -346 -7 -770z"/>
</g>
</svg>
